# Blender v2.79 (sub 0) OBJ File: ''
# www.blender.org
o Cube
v -0.105823 0.082128 0.144480
v -0.105823 0.082128 1.000000
v -0.954828 0.082128 1.000000
v -0.954828 0.082128 0.144480
v -0.105822 0.807151 0.144480
v -0.105823 0.807151 1.000001
v -0.954829 0.807151 1.000000
v -0.954828 0.807151 0.144480
vt 0.995295 0.971856
vt 0.660399 0.502858
vt 0.988295 0.504944
vt 0.331639 0.502952
vt 0.013266 0.028466
vt 0.334806 0.013456
vt 0.345215 0.983279
vt -0.001846 0.478579
vt 0.332777 0.482130
vt 0.666639 0.999918
vt 0.345612 0.497436
vt 0.663149 0.507907
vt 0.335142 0.015788
vt 0.659659 0.502564
vt 0.352592 0.502564
vt 0.974386 0.500555
vt 0.670031 0.020435
vt 0.984248 0.015788
vt 0.671619 0.975081
vt 0.004988 0.500401
vt -0.000368 0.997802
vt 0.345612 0.973742
vt 0.666640 0.000082
vt 0.666528 0.495139
vn 0.0000 -1.0000 -0.0000
vn 0.0000 1.0000 0.0000
vn 1.0000 -0.0000 0.0000
vn 0.0000 -0.0000 1.0000
vn -1.0000 -0.0000 -0.0000
vn 0.0000 0.0000 -1.0000
s off
f 1/1/1 3/2/1 4/3/1
f 5/4/2 7/5/2 6/6/2
f 5/7/3 2/8/3 1/9/3
f 6/10/4 3/11/4 2/12/4
f 7/13/5 4/14/5 3/15/5
f 1/16/6 8/17/6 5/18/6
f 1/1/1 2/19/1 3/2/1
f 5/4/2 8/20/2 7/5/2
f 5/7/3 6/21/3 2/8/3
f 6/10/4 7/22/4 3/11/4
f 7/13/5 8/23/5 4/14/5
f 1/16/6 4/24/6 8/17/6
