# Blender v2.79 (sub 0) OBJ File: ''
# www.blender.org
mtllib litle-cube.mtl
o Cube_Cube.001
v -0.159214 -0.159214 0.159214
v -0.159214 0.159214 0.159214
v -0.159214 -0.159214 -0.159214
v -0.159214 0.159214 -0.159214
v 0.159214 -0.159214 0.159214
v 0.159214 0.159214 0.159214
v 0.159214 -0.159214 -0.159214
v 0.159214 0.159214 -0.159214
vt 0.000000 -0.006128
vt 0.414753 -0.009192
vt 0.473356 0.453264
vt -0.009192 0.417817
vt -0.006128 0.450426
vt 0.450426 0.450426
vt 0.450426 0.000000
vt 0.000000 0.000000
vt 0.763015 0.573955
vt 0.753653 0.003610
vt 0.000000 0.010829
vt -0.004681 0.566736
vt 0.000000 0.996300
vt 0.009362 0.667810
vt 0.669393 0.667810
vt 0.664712 0.996300
vt 0.000000 0.397076
vt 0.538323 0.393466
vt 0.557048 0.007220
vt 0.000000 0.000000
vt 0.243416 0.635322
vt 0.917490 0.646151
vt 0.917490 0.281563
vt 0.205967 0.270734
vn 0.0000 0.0000 1.0000
vn 0.0000 1.0000 0.0000
vn -1.0000 0.0000 0.0000
vn 0.0000 0.0000 -1.0000
vn 1.0000 0.0000 0.0000
vn 0.0000 -1.0000 0.0000
usemtl Material.004
s off
f 5/1/1 6/2/1 2/3/1 1/4/1
f 8/5/2 4/6/2 2/7/2 6/8/2
usemtl Material.004_Untitled.png
f 1/9/3 2/10/3 4/11/3 3/12/3
f 3/13/4 4/14/4 8/15/4 7/16/4
f 7/17/5 8/18/5 6/19/5 5/20/5
f 3/21/6 7/22/6 5/23/6 1/24/6
